<svg id="Layer_1" xmlns="http://www.w3.org/2000/svg" viewBox="0 0 200 200"><style>.st0{fill:#1a2024}</style><path class="st0" d="M183 75.8c1 0 1.9-.8 1.9-1.9v-3.8c0-1-.8-1.9-1.9-1.9H17c-1 0-1.9.8-1.9 1.9v3.8c0 1.1.8 1.9 1.9 1.9 4.9 0 8.8 4 8.8 8.8 0 4.9-3.9 8.8-8.8 8.8-1 0-1.9.8-1.9 1.9v5.7c0 1 .8 1.9 1.9 1.9 4.9 0 8.8 4 8.8 8.8 0 4.9-3.9 8.8-8.8 8.8-1 0-1.9.9-1.9 1.9v5.7c0 1 .8 1.9 1.9 1.9 4.9 0 8.8 4 8.8 8.8 0 4.8-3.9 8.8-8.8 8.8-1 0-1.9.8-1.9 1.9v3.8c0 1.1.8 1.9 1.9 1.9h17.1l2 4.1c.5 1 1.6 1.3 2.5.9 3.5-1.7 7.8-.2 9.5 3.4 1.7 3.6.2 7.8-3.4 9.5-.5.2-.8.6-1 1.1-.2.5-.1 1 .1 1.4l2.1 4.3c.5 1 1.6 1.3 2.5.9 3.6-1.7 7.8-.2 9.5 3.4 1.7 3.6.2 7.8-3.4 9.5-.9.5-1.3 1.6-.9 2.5l1.4 2.9c.3.7 1 1.1 1.7 1.1.3 0 .6-.1.8-.2l93.4-44.8H183c1.1 0 1.9-.8 1.9-1.9v-3.8c0-1-.8-1.9-1.9-1.9-4.8 0-8.8-3.9-8.8-8.8 0-4.8 3.9-8.8 8.8-8.8 1.1 0 1.9-.8 1.9-1.9v-5.7c0-1-.8-1.9-1.9-1.9-4.8 0-8.8-3.9-8.8-8.8 0-4.8 3.9-8.8 8.8-8.8 1.1 0 1.9-.8 1.9-1.9v-5.7c0-1.1-.8-1.9-1.9-1.9-4.8 0-8.8-3.9-8.8-8.8 0-4.8 3.9-8.8 8.8-8.8zM107.3 155h10.2l-47.6 21.7L58.8 155h37.8m66.9-16.3c0 1-.8 1.9-1.9 1.9H38.4c-1 0-1.9-.8-1.9-1.9v-54c0-1 .8-1.9 1.9-1.9h123.2c1.1 0 1.9.9 1.9 1.9v54zM98.9 0l8.2 16.6 18.4 2.7-13.3 13 3.1 18.3-16.4-8.7-16.5 8.7 3.2-18.3-13.3-13 18.4-2.7zM53.3 19.8l4.2 8.5 9.3 1.3-6.7 6.6 1.6 9.3-8.4-4.4-8.3 4.4 1.6-9.3-6.8-6.6 9.3-1.3zm90.8 0l4.2 8.5 9.3 1.3-6.7 6.6 1.6 9.3-8.4-4.4-8.3 4.4 1.6-9.3-6.8-6.6 9.4-1.3z"/><path class="st0" d="M70.7 129.5V94.2h7.4c1.6 0 2.9.3 4.1.7 1.2.5 2.1 1.2 2.8 2 .7.8 1.2 1.8 1.5 2.8s.5 2.1.5 3.3v1.3c0 1.8-.3 3.1-.8 4-.5.9-1.4 1.7-2.6 2.5 1.2.6 2.1 1.4 2.6 2.5.6 1.1.8 2.6.8 4.4v2c0 6.4-3.2 9.6-9.5 9.6l-6.8.2zm5-20.8H78c1.6 0 2.7-.4 3.4-1.2.6-.8.9-2.1.9-3.8 0-1.6-.3-2.8-1-3.6-.7-.8-1.8-1.2-3.4-1.2h-2.1l-.1 9.8zm0 15.7h2.2c.8 0 1.5-.1 2-.3.6-.2 1-.4 1.3-.8.3-.3.6-.8.7-1.3.2-.6.3-1.1.3-1.6s.1-1.2.1-2c0-1.9-.3-3.3-.9-4.1-.6-.8-1.7-1.2-3.5-1.2h-2.2v11.3zm16.1-2.8V94.2h5V121c0 1.2.3 2.1.9 2.7.6.6 1.3.9 2.2.9.9 0 1.7-.3 2.3-.9.6-.6.9-1.5.9-2.7V94.2h5v27.3c0 2.3-.8 4.2-2.4 5.8-1.6 1.6-3.5 2.4-5.8 2.4-2.2 0-4.2-.8-5.8-2.4-1.5-1.5-2.3-3.5-2.3-5.7zm18.8-27.4h5.3l4.1 14h.1l4.1-14h5.3l-6.9 20.4v14.9h-5.1v-14.9l-6.9-20.4z"/></svg>