<svg xmlns="http://www.w3.org/2000/svg" width="200" height="200" viewBox="0 0 200 200"><g fill="#F8CF1C"><path d="M182.979 75.839c1.031 0 1.871-.849 1.871-1.896v-3.778c0-1.034-.84-1.878-1.871-1.878H17.007a1.877 1.877 0 0 0-1.862 1.878v3.778c0 1.046.84 1.87 1.862 1.87 4.861.025 8.809 3.964 8.809 8.81 0 4.862-3.947 8.802-8.809 8.802-1.022 0-1.862.848-1.862 1.895v5.653c0 1.047.84 1.876 1.862 1.876 4.861 0 8.809 3.956 8.809 8.81 0 4.854-3.947 8.793-8.809 8.793-1.022 0-1.862.857-1.862 1.889v5.669c0 1.03.84 1.879 1.862 1.879 4.861 0 8.809 3.956 8.809 8.802 0 4.838-3.947 8.801-8.809 8.801-1.022 0-1.862.85-1.862 1.879v3.774c0 1.046.84 1.896 1.862 1.896h17.111l1.953 4.069c.462.957 1.607 1.345 2.53.883 3.548-1.689 7.837-.182 9.538 3.369 1.71 3.562.206 7.847-3.35 9.543a1.89 1.89 0 0 0-.886 2.531l2.064 4.301a1.879 1.879 0 0 0 2.521.892c3.556-1.698 7.841-.188 9.547 3.36 1.706 3.562.198 7.828-3.358 9.552-.935.452-1.347 1.582-.877 2.514l1.372 2.886a1.858 1.858 0 0 0 1.694 1.062c.275 0 .552-.058.808-.183l93.394-44.772h31.891a1.891 1.891 0 0 0 1.896-1.896v-3.774a1.889 1.889 0 0 0-1.896-1.879c-4.838 0-8.779-3.938-8.779-8.802 0-4.846 3.941-8.801 8.779-8.801a1.877 1.877 0 0 0 1.896-1.879v-5.66a1.898 1.898 0 0 0-1.896-1.904c-4.838 0-8.779-3.938-8.779-8.793 0-4.846 3.941-8.811 8.779-8.811a1.874 1.874 0 0 0 1.896-1.876V95.32a1.89 1.89 0 0 0-1.896-1.895c-4.838 0-8.779-3.939-8.779-8.802-.006-4.845 3.938-8.784 8.799-8.784zm-75.65 79.2h10.198l-47.623 21.713-11.087-21.713h37.759m66.922-16.35c0 1.047-.844 1.879-1.906 1.879H38.396a1.861 1.861 0 0 1-1.875-1.879V84.64c0-1.047.824-1.9 1.875-1.9H161.59c1.063 0 1.907.853 1.907 1.9l.001 54.049zM98.867-.001l8.227 16.643 18.365 2.673-13.287 12.964 3.131 18.298-16.436-8.636-16.428 8.636 3.127-18.298-13.28-12.964 18.365-2.673zM53.32 19.797l4.178 8.46 9.324 1.356-6.757 6.58 1.599 9.299-8.344-4.388-8.352 4.388 1.586-9.299-6.745-6.58 9.333-1.356zm90.833 0l4.171 8.46 9.327 1.356-6.744 6.58 1.59 9.299-8.344-4.388-8.352 4.388 1.6-9.299-6.758-6.58 9.328-1.356z"/><path d="M59.072 121.664v-1.928h5.167v1.631c0 1.037.305 1.912.915 2.619.613.709 1.524 1.063 2.744 1.063.841 0 1.516-.115 2.035-.346.519-.231.902-.61 1.142-1.138.24-.528.392-1.062.453-1.625.065-.552.099-1.302.099-2.258 0-1.318-.082-2.299-.247-2.941-.165-.642-.441-1.137-.815-1.476-.375-.329-1.022-.684-1.929-1.045l-3.684-1.509c-2.126-.874-3.593-2.036-4.4-3.494-.808-1.459-1.212-3.388-1.212-5.777 0-2.865.763-5.226 2.287-7.08 1.524-1.858 3.712-2.782 6.567-2.782 1.648 0 3.141.4 4.483 1.199 1.343.795 2.365 1.817 3.065 3.054.701 1.236 1.05 2.534 1.05 3.88v2.554h-5.167v-1.161c0-1.287-.297-2.34-.89-3.155-.594-.812-1.509-1.223-2.744-1.223-2.341 0-3.511 1.557-3.511 4.674 0 1.482.169 2.521.507 3.123.337.602 1.149 1.153 2.435 1.674l3.96 1.58c2.159.824 3.602 1.971 4.322 3.438.722 1.459 1.087 3.604 1.087 6.42 0 7.055-2.962 10.589-8.895 10.589-2.506 0-4.603-.815-6.292-2.446-1.687-1.64-2.532-3.674-2.532-6.114zm21.261-.249V102.38c0-1.419.252-2.701.755-3.847.502-1.141 1.166-2.072 2.002-2.782a9.083 9.083 0 0 1 9.023-1.619 9.032 9.032 0 0 1 2.765 1.619c.833.709 1.5 1.641 2.007 2.782.507 1.146.754 2.428.754 3.847v19.035c0 1.419-.251 2.704-.754 3.841-.503 1.146-1.17 2.076-2.007 2.786a9.044 9.044 0 0 1-2.765 1.614 8.999 8.999 0 0 1-6.253 0 9.021 9.021 0 0 1-2.77-1.614c-.828-.71-1.496-1.64-2.002-2.786-.507-1.137-.755-2.422-.755-3.841zm5.167 0c0 1.171.33 2.069.989 2.694.655.627 1.491.939 2.497.939 1.001 0 1.842-.312 2.509-.939.667-.625 1.001-1.523 1.001-2.694V102.38c0-1.173-.334-2.075-1.001-2.709-.667-.638-1.499-.956-2.509-.956-1.009 0-1.841.313-2.497.943-.659.626-.989 1.53-.989 2.722v19.035zm16.391 0V102.38c0-1.419.256-2.701.754-3.847.504-1.141 1.17-2.072 2.007-2.782a9.102 9.102 0 0 1 5.893-2.175c1.075 0 2.114.186 3.128.556a9.051 9.051 0 0 1 2.769 1.619c.834.709 1.497 1.641 2.004 2.782.506 1.146.758 2.428.758 3.847v19.035c0 1.419-.257 2.704-.758 3.841-.504 1.146-1.167 2.076-2.004 2.786-.835.708-1.755 1.243-2.769 1.614s-2.053.561-3.128.561a8.988 8.988 0 0 1-3.124-.561 9.028 9.028 0 0 1-2.769-1.614c-.832-.71-1.5-1.64-2.007-2.786-.502-1.137-.754-2.422-.754-3.841zm5.166 0c0 1.171.326 2.069.985 2.694.659.627 1.495.939 2.496.939 1.006 0 1.847-.312 2.515-.939.662-.625.998-1.523.998-2.694V102.38c0-1.173-.336-2.075-.998-2.709-.668-.638-1.504-.956-2.515-.956-1.005 0-1.837.313-2.496.943-.659.626-.985 1.53-.985 2.722v19.035zm16.486 8.505V93.878h4.975l7.787 21.704h.095V93.878h5.171v36.042h-4.846l-7.912-21.682h-.096v21.683l-5.174-.001z"/></g></svg>