<svg id="Layer_1" xmlns="http://www.w3.org/2000/svg" viewBox="0 0 200 200"><style>.st0{fill:#ccc}</style><path class="st0" d="M183 75.8c1 0 1.9-.8 1.9-1.9v-3.8c0-1-.8-1.9-1.9-1.9H17c-1 0-1.9.8-1.9 1.9v3.8c0 1.1.8 1.9 1.9 1.9 4.9 0 8.8 4 8.8 8.8 0 4.9-3.9 8.8-8.8 8.8-1 0-1.9.8-1.9 1.9v5.7c0 1 .8 1.9 1.9 1.9 4.9 0 8.8 4 8.8 8.8 0 4.9-3.9 8.8-8.8 8.8-1 0-1.9.9-1.9 1.9v5.7c0 1 .8 1.9 1.9 1.9 4.9 0 8.8 4 8.8 8.8 0 4.8-3.9 8.8-8.8 8.8-1 0-1.9.8-1.9 1.9v3.8c0 1.1.8 1.9 1.9 1.9h17.1l2 4.1c.5 1 1.6 1.3 2.5.9 3.5-1.7 7.8-.2 9.5 3.4 1.7 3.6.2 7.8-3.4 9.5-.5.2-.8.6-1 1.1-.2.5-.1 1 .1 1.4l2.1 4.3c.5 1 1.6 1.3 2.5.9 3.6-1.7 7.8-.2 9.5 3.4 1.7 3.6.2 7.8-3.4 9.5-.9.5-1.3 1.6-.9 2.5l1.4 2.9c.3.7 1 1.1 1.7 1.1.3 0 .6-.1.8-.2l93.4-44.8H183c1.1 0 1.9-.8 1.9-1.9v-3.8c0-1-.8-1.9-1.9-1.9-4.8 0-8.8-3.9-8.8-8.8 0-4.8 3.9-8.8 8.8-8.8 1.1 0 1.9-.8 1.9-1.9v-5.7c0-1-.8-1.9-1.9-1.9-4.8 0-8.8-3.9-8.8-8.8 0-4.8 3.9-8.8 8.8-8.8 1.1 0 1.9-.8 1.9-1.9v-5.7c0-1.1-.8-1.9-1.9-1.9-4.8 0-8.8-3.9-8.8-8.8 0-4.8 3.9-8.8 8.8-8.8zM107.3 155h10.2l-47.6 21.7L58.8 155h37.8m66.9-16.3c0 1-.8 1.9-1.9 1.9H38.4c-1.1 0-1.9-.8-1.9-1.9v-54c0-1 .8-1.9 1.9-1.9h123.2c1.1 0 1.9.9 1.9 1.9v54zM98.9 0l8.2 16.6 18.4 2.7-13.3 13 3.1 18.3-16.4-8.7-16.5 8.7 3.2-18.3-13.3-13 18.4-2.7zM53.3 19.8l4.2 8.5 9.3 1.3-6.7 6.6 1.6 9.3-8.4-4.4-8.3 4.4 1.6-9.3-6.8-6.6 9.3-1.3zm90.8 0l4.2 8.5 9.4 1.3-6.8 6.6 1.6 9.3-8.4-4.4-8.3 4.4 1.6-9.3-6.8-6.6 9.4-1.3z"/><path class="st0" d="M42.2 121.3v-1.9h4v1.6c0 1 .2 1.9.7 2.6.5.7 1.2 1 2.1 1 .7 0 1.2-.1 1.6-.3.4-.2.7-.6.9-1.1.2-.5.3-1 .4-1.6 0-.5.1-1.3.1-2.2 0-1.3-.1-2.2-.2-2.9-.1-.6-.3-1.1-.6-1.4-.3-.3-.8-.7-1.5-1l-2.8-1.5c-1.6-.8-2.8-2-3.4-3.4-.6-1.4-.9-3.3-.9-5.6 0-2.8.6-5.1 1.8-6.9 1.2-1.8 2.9-2.7 5-2.7 1.3 0 2.4.4 3.4 1.2 1 .8 1.8 1.8 2.4 3 .5 1.2.8 2.5.8 3.8v2.5h-4v-1.1c0-1.3-.2-2.3-.7-3.1-.5-.8-1.2-1.2-2.1-1.2-1.8 0-2.7 1.5-2.7 4.6 0 1.4.1 2.5.4 3 .3.6.9 1.1 1.9 1.6l3 1.5c1.7.8 2.8 1.9 3.3 3.4.6 1.4.8 3.5.8 6.3 0 6.9-2.3 10.3-6.8 10.3-1.9 0-3.5-.8-4.8-2.4-1.5-1.7-2.1-3.7-2.1-6.1zm16.3-.2v-18.6c0-1.4.2-2.6.6-3.8.4-1.1.9-2 1.5-2.7.6-.7 1.3-1.2 2.1-1.6s1.6-.5 2.4-.5c.8 0 1.6.2 2.4.5.8.4 1.5.9 2.1 1.6.6.7 1.1 1.6 1.5 2.7.4 1.1.6 2.4.6 3.8v18.6c0 1.4-.2 2.6-.6 3.8-.4 1.1-.9 2-1.5 2.7-.6.7-1.4 1.2-2.1 1.6-.8.4-1.6.5-2.4.5-.8 0-1.6-.2-2.4-.5-.8-.4-1.5-.9-2.1-1.6-.6-.7-1.2-1.6-1.5-2.7-.4-1.2-.6-2.4-.6-3.8zm4 0c0 1.1.3 2 .8 2.6.5.6 1.1.9 1.9.9.8 0 1.4-.3 1.9-.9.5-.6.8-1.5.8-2.6v-18.6c0-1.1-.3-2-.8-2.6-.5-.6-1.2-.9-1.9-.9-.8 0-1.4.3-1.9.9-.5.6-.8 1.5-.8 2.7v18.5zm12.8 8.3V94.2h4v30.2h7.9v5H75.3zm14.4 0V94.2h5.9c2.2 0 4 .8 5.2 2.4 1.2 1.6 1.8 3.8 1.8 6.7v16.5c0 3.2-.6 5.6-1.9 7.2-1.3 1.6-3.1 2.4-5.4 2.4h-5.6zm4-4.8h1.8c1.1 0 1.9-.4 2.4-1 .5-.7.7-1.8.7-3.4v-17c0-1.5-.2-2.6-.7-3.3-.5-.7-1.3-1.1-2.4-1.1h-1.8v25.8zm19.6-3.5v-18.6c0-1.4.2-2.6.6-3.8.4-1.1.9-2 1.5-2.7.6-.7 1.4-1.2 2.1-1.6.8-.4 1.6-.5 2.4-.5.8 0 1.6.2 2.4.5.8.4 1.5.9 2.1 1.6.6.7 1.1 1.6 1.5 2.7.4 1.1.6 2.4.6 3.8v18.6c0 1.4-.2 2.6-.6 3.8-.4 1.1-.9 2-1.5 2.7-.6.7-1.4 1.2-2.1 1.6-.8.4-1.6.5-2.4.5-.8 0-1.6-.2-2.4-.5-.8-.4-1.5-.9-2.1-1.6-.6-.7-1.1-1.6-1.5-2.7-.4-1.2-.6-2.4-.6-3.8zm3.9 0c0 1.1.3 2 .8 2.6.5.6 1.1.9 1.9.9.8 0 1.4-.3 1.9-.9.5-.6.8-1.5.8-2.6v-18.6c0-1.1-.3-2-.8-2.6-.5-.6-1.2-.9-1.9-.9-.8 0-1.4.3-1.9.9-.5.6-.8 1.5-.8 2.7v18.5zm12.9.4V94.2h4V121c0 1.2.2 2.1.7 2.7.4.6 1 .9 1.8.9s1.3-.3 1.8-.9c.5-.6.7-1.5.7-2.7V94.2h4v27.3c0 2.3-.6 4.2-1.9 5.8-1.3 1.6-2.8 2.4-4.5 2.4s-3.3-.8-4.5-2.4c-1.5-1.6-2.1-3.5-2.1-5.8zm14.6-22.6v-4.7h13.1v4.7h-4.6v30.5h-4V98.9h-4.5z"/></svg>