<svg xmlns="http://www.w3.org/2000/svg" width="200" height="200" viewBox="0 0 200 200"><g fill="#FFF"><path d="M182.977 75.829a1.88 1.88 0 0 0 1.871-1.896v-3.774a1.873 1.873 0 0 0-1.871-1.874H17.018a1.87 1.87 0 0 0-1.867 1.874v3.778c0 1.055.84 1.87 1.862 1.87 4.861.025 8.809 3.964 8.809 8.81 0 4.861-3.947 8.805-8.809 8.805-1.022-.005-1.862.845-1.862 1.896v5.657a1.86 1.86 0 0 0 1.862 1.869c4.861 0 8.809 3.965 8.809 8.811 0 4.854-3.947 8.791-8.809 8.791-1.022-.004-1.862.854-1.862 1.885V128c0 1.03.84 1.88 1.862 1.88 4.861 0 8.809 3.958 8.809 8.799 0 4.848-3.947 8.805-8.809 8.805-1.022 0-1.862.848-1.862 1.881v3.773c0 1.057.84 1.895 1.862 1.895h17.11l1.953 4.08c.461.951 1.607 1.344 2.529.881 3.547-1.692 7.836-.188 9.538 3.375 1.709 3.552.206 7.841-3.351 9.533a1.893 1.893 0 0 0-.886 2.531l2.065 4.305a1.881 1.881 0 0 0 2.521.891c3.556-1.697 7.841-.189 9.546 3.361 1.705 3.561.197 7.832-3.357 9.543-.937.461-1.348 1.582-.877 2.521l1.373 2.882a1.861 1.861 0 0 0 1.692 1.069c.276 0 .553-.058.809-.188l93.386-44.77h31.89c1.055 0 1.896-.84 1.896-1.896v-3.771a1.887 1.887 0 0 0-1.896-1.878c-4.837 0-8.779-3.938-8.779-8.802 0-4.842 3.942-8.801 8.779-8.801a1.877 1.877 0 0 0 1.896-1.879v-5.652a1.897 1.897 0 0 0-1.896-1.903c-4.837 0-8.779-3.938-8.779-8.791 0-4.842 3.942-8.81 8.779-8.81 1.055 0 1.896-.825 1.896-1.871v-5.651c0-1.052-.841-1.9-1.896-1.9-4.837 0-8.779-3.942-8.779-8.805a8.8 8.8 0 0 1 8.802-8.808zm-75.649 79.194h10.197l-47.62 21.713-11.088-21.713h37.758m66.918-16.347c0 1.049-.845 1.881-1.906 1.881H38.399a1.862 1.862 0 0 1-1.875-1.881V84.633c0-1.046.825-1.898 1.875-1.898h123.186c1.063 0 1.907.853 1.907 1.898l.001 54.043zM98.866-.001l8.228 16.649 18.368 2.665-13.292 12.966 3.141 18.302-16.445-8.64-16.427 8.64 3.132-18.302-13.284-12.966 18.366-2.665zM53.322 19.801l4.179 8.458 9.322 1.351-6.752 6.579 1.6 9.299-8.349-4.391-8.346 4.391 1.586-9.299-6.75-6.579 9.334-1.351zm90.828 0l4.172 8.458 9.328 1.351-6.748 6.579 1.591 9.299-8.343-4.391-8.351 4.391 1.597-9.299-6.755-6.579 9.327-1.351z"/><path d="M70.685 129.484V94.237h7.376c1.569 0 2.95.252 4.136.746 1.184.481 2.122 1.153 2.801 2.002a8.528 8.528 0 0 1 1.529 2.818c.33 1.03.496 2.144.496 3.341v1.303c0 1.771-.272 3.115-.813 4.021-.538.915-1.425 1.747-2.648 2.51 1.199.566 2.073 1.396 2.628 2.514.553 1.113.833 2.588.833 4.426v1.979c0 6.406-3.153 9.601-9.453 9.601h-6.885v-.014zm5.054-20.789h2.268c1.618 0 2.731-.4 3.351-1.195.618-.796.934-2.051.934-3.764 0-1.604-.345-2.812-1.023-3.587-.69-.787-1.84-1.173-3.45-1.173h-2.072v9.719h-.008zm0 15.735h2.176c.792 0 1.458-.1 2.002-.305.554-.197.981-.45 1.281-.773.31-.312.552-.752.717-1.308a7.282 7.282 0 0 0 .314-1.599c.041-.498.066-1.158.066-1.971 0-1.896-.286-3.26-.862-4.095-.569-.834-1.73-1.245-3.469-1.245h-2.218v11.293l-.007.003zm16.025-2.871V94.238h5.047v26.834c0 1.193.284 2.102.866 2.72.567.626 1.316.937 2.249.937.938 0 1.692-.307 2.264-.937.572-.614.865-1.521.865-2.72V94.237h5.037v27.32c0 2.293-.791 4.229-2.386 5.826-1.601 1.592-3.522 2.385-5.78 2.385-2.249 0-4.179-.793-5.768-2.385-1.596-1.598-2.394-3.533-2.394-5.824zm18.852-27.322h5.343l4.061 14.003h.099l4.063-14.003h5.34l-6.91 20.357v14.891h-5.051v-14.891l-6.945-20.357z"/></g></svg>