<svg id="Layer_1" xmlns="http://www.w3.org/2000/svg" viewBox="0 0 200 200"><style>.st0{fill:#1a2024}</style><path class="st0" d="M183 68.9c1 0 1.9-.8 1.9-1.9v-3.8c0-1-.8-1.9-1.9-1.9H17c-1 0-1.9.8-1.9 1.9V67c0 1 .8 1.9 1.9 1.9 4.9 0 8.8 4 8.8 8.8 0 4.9-3.9 8.8-8.8 8.8-1 0-1.9.8-1.9 1.9v5.7c0 1 .8 1.9 1.9 1.9 4.9 0 8.8 4 8.8 8.8 0 4.9-3.9 8.8-8.8 8.8-1 0-1.9.9-1.9 1.9v5.7c0 1 .8 1.9 1.9 1.9 4.9 0 8.8 4 8.8 8.8 0 4.8-3.9 8.8-8.8 8.8-1 0-1.9.9-1.9 1.9v3.8c0 1 .8 1.9 1.9 1.9h17.1l2 4.1c.5 1 1.6 1.3 2.5.9 3.5-1.7 7.8-.2 9.5 3.4 1.7 3.6.2 7.8-3.3 9.5-.5.2-.8.6-1 1.1s-.1 1 .1 1.4L46 173c.5 1 1.6 1.3 2.5.9 3.6-1.7 7.8-.2 9.5 3.4 1.7 3.6.2 7.8-3.4 9.6-.9.5-1.3 1.6-.9 2.5l1.4 2.9c.3.7 1 1.1 1.7 1.1.3 0 .6-.1.8-.2l93.4-44.8h32c1.1 0 1.9-.8 1.9-1.9v-3.8c0-1-.8-1.9-1.9-1.9-4.8 0-8.8-3.9-8.8-8.8 0-4.8 3.9-8.8 8.8-8.8 1.1 0 1.9-.8 1.9-1.9v-5.7c0-1-.8-1.9-1.9-1.9-4.8 0-8.8-3.9-8.8-8.8 0-4.8 3.9-8.8 8.8-8.8 1.1 0 1.9-.8 1.9-1.9v-5.7c0-1-.8-1.9-1.9-1.9-4.8 0-8.8-3.9-8.8-8.8s3.9-8.9 8.8-8.9zm-75.7 79.2h10.2l-47.6 21.7-11.1-21.7h37.8m66.9-16.3c0 1-.8 1.9-1.9 1.9H38.4c-1.1 0-1.9-.8-1.9-1.9v-54c0-1 .8-1.9 1.9-1.9h123.2c1.1 0 1.9.9 1.9 1.9v54zM40.2 23.1l3.1 6.3 7 1-5.1 5 1.2 6.9-6.2-3.3-6.3 3.3 1.2-6.9-5.1-5 7-1zm118.4 0l3.1 6.3 7 1-5 5 1.2 6.9-6.3-3.3-6.3 3.3 1.2-6.9-5-5 7-1z"/><path class="st0" d="M47.9 112.4V89.3h4.3V112c0 1 .2 1.8.7 2.3s1.1.8 1.9.8 1.4-.3 1.9-.8.7-1.3.7-2.3V89.3h4.3v23.1c0 1.9-.7 3.6-2 4.9s-3 2-4.9 2-3.5-.7-4.9-2c-1.3-1.3-2-3-2-4.9zm17-.1v-1.6h4.3v1.3c0 .9.3 1.6.8 2.2s1.3.9 2.3.9c.7 0 1.3-.1 1.7-.3.4-.2.7-.5.9-.9.2-.4.3-.9.4-1.3.1-.5.1-1.1.1-1.9 0-1.1-.1-1.9-.2-2.4s-.4-.9-.7-1.2c-.3-.3-.8-.6-1.6-.9l-3-1.2c-1.8-.7-3-1.7-3.6-2.9-.7-1.2-1-2.8-1-4.8 0-2.4.6-4.3 1.9-5.8s3.1-2.3 5.4-2.3c1.4 0 2.6.3 3.7 1s2 1.5 2.5 2.5c.6 1 .9 2.1.9 3.2V98h-4.3v-1c0-1.1-.2-1.9-.7-2.6s-1.2-1-2.3-1c-1.9 0-2.9 1.3-2.9 3.9 0 1.2.1 2.1.4 2.6s.9 1 2 1.4l3.3 1.3c1.8.7 3 1.6 3.6 2.8.6 1.2.9 3 .9 5.3 0 5.8-2.4 8.7-7.3 8.7-2.1 0-3.8-.7-5.2-2-1.6-1.4-2.3-3.1-2.3-5.1zm17.8 6.8V89.3H89c2.4 0 4.2.7 5.5 2 1.3 1.4 1.9 3.2 1.9 5.7v14c0 2.7-.7 4.8-2 6.1-1.3 1.4-3.3 2-5.8 2h-5.9zm4.3-4h2c1.2 0 2-.3 2.5-.9s.8-1.5.8-2.8V97c0-1.2-.2-2.2-.7-2.8-.5-.6-1.4-.9-2.6-.9h-2v21.8zM108.5 97v-4.5l4.2-3.1h4.3v29.8h-4.3V93.9l-4.2 3.1zm14.7 22.1v-4l7.7-14.5c.3-.7.6-1.3.6-1.8.1-.5.1-1.2.1-2.2v-.9c0-.2 0-.5-.1-.9s-.2-.6-.3-.8c-.1-.2-.3-.3-.6-.5-.3-.1-.6-.2-1-.2-.6 0-1.1.2-1.5.6-.4.4-.6.9-.6 1.6v2.4h-4.3v-2.3c0-1.8.6-3.3 1.9-4.6 1.2-1.3 2.8-1.9 4.5-1.9 1.1 0 2 .2 2.8.6s1.5 1 2 1.7.9 1.5 1.1 2.4c.2.9.4 1.8.4 2.8 0 1.5-.1 2.6-.2 3.3-.1.7-.5 1.7-1.2 2.9l-6.3 12.1h7.7v4.3l-12.7-.1zm15.5-6.1V95.5c0-1.9.6-3.5 1.8-4.6 1.2-1.2 2.7-1.8 4.5-1.8s3.3.6 4.5 1.8c1.2 1.2 1.8 2.7 1.8 4.6V113c0 1.9-.6 3.5-1.8 4.6s-2.7 1.8-4.5 1.8-3.3-.6-4.5-1.8c-1.1-1.2-1.8-2.7-1.8-4.6zm4.3 0c0 .6.2 1.1.6 1.5s.9.6 1.5.6 1.1-.2 1.5-.6.6-.9.6-1.5V95.5c0-.6-.2-1.1-.6-1.5-.4-.4-.9-.6-1.5-.6s-1.1.2-1.5.6-.6.9-.6 1.5V113zM62.5 38.1v-1.7h4.6v1.5c0 .9.3 1.7.8 2.3s1.4.9 2.5.9c.8 0 1.4-.1 1.8-.3.5-.2.8-.5 1-1s.3-1 .4-1.4c.1-.5.1-1.2.1-2 0-1.2-.1-2.1-.2-2.6-.1-.6-.4-1-.7-1.3-.3-.3-.9-.6-1.7-.9l-3.3-1.3c-1.9-.8-3.2-1.8-3.9-3.1-.7-1.3-1.1-3-1.1-5.2 0-2.6.7-4.7 2-6.3 1.4-1.7 3.3-2.5 5.9-2.5 1.5 0 2.8.4 4 1.1s2.1 1.6 2.7 2.7.9 2.3.9 3.5v2.3h-4.6v-1c0-1.1-.3-2.1-.8-2.8-.5-.7-1.3-1.1-2.5-1.1-2.1 0-3.1 1.4-3.1 4.2 0 1.3.2 2.3.5 2.8s1 1 2.2 1.5l3.5 1.4c1.9.7 3.2 1.8 3.9 3.1.6 1.3 1 3.2 1 5.7 0 6.3-2.7 9.5-7.9 9.5-2.2 0-4.1-.7-5.6-2.2-1.6-1.8-2.4-3.6-2.4-5.8zm19-.2v-17c0-1.3.2-2.4.7-3.4s1-1.9 1.8-2.5c.7-.6 1.6-1.1 2.5-1.4.9-.3 1.8-.5 2.8-.5s1.9.2 2.8.5 1.7.8 2.5 1.4c.7.6 1.3 1.5 1.8 2.5.4 1 .7 2.2.7 3.4v17c0 1.3-.2 2.4-.7 3.4s-1 1.9-1.8 2.5c-.7.6-1.6 1.1-2.5 1.4-.9.3-1.8.5-2.8.5s-1.9-.2-2.8-.5-1.7-.8-2.5-1.4c-.7-.6-1.3-1.5-1.8-2.5s-.7-2.1-.7-3.4zm4.6 0c0 1 .3 1.8.9 2.4.6.6 1.3.8 2.2.8s1.6-.3 2.2-.8c.6-.6.9-1.4.9-2.4v-17c0-1-.3-1.9-.9-2.4-.6-.6-1.3-.9-2.2-.9s-1.6.3-2.2.8c-.6.6-.9 1.4-.9 2.4v17.1zm14.7 0v-17c0-1.3.2-2.4.7-3.4.4-1 1-1.9 1.8-2.5.7-.6 1.6-1.1 2.5-1.4.9-.3 1.8-.5 2.8-.5s1.9.2 2.8.5 1.7.8 2.5 1.4c.7.6 1.3 1.5 1.8 2.5.4 1 .7 2.2.7 3.4v17c0 1.3-.2 2.4-.7 3.4-.4 1-1 1.9-1.8 2.5-.7.6-1.6 1.1-2.5 1.4-.9.3-1.8.5-2.8.5s-1.9-.2-2.8-.5-1.7-.8-2.5-1.4c-.7-.6-1.3-1.5-1.8-2.5s-.7-2.1-.7-3.4zm4.6 0c0 1 .3 1.8.9 2.4.6.6 1.3.8 2.2.8s1.6-.3 2.2-.8c.6-.6.9-1.4.9-2.4v-17c0-1-.3-1.9-.9-2.4-.6-.6-1.3-.9-2.2-.9s-1.6.3-2.2.8c-.6.6-.9 1.4-.9 2.4v17.1zm14.7 7.6V13.3h4.4l7 19.4h.1V13.3h4.6v32.2h-4.3l-7.1-19.4h-.1v19.4h-4.6z"/></svg>