<svg xmlns="http://www.w3.org/2000/svg" width="200" height="200" viewBox="0 0 200 200"><path fill="#F8CF1C" d="M182.979 68.948c1.031 0 1.871-.849 1.871-1.896v-3.778c0-1.034-.84-1.878-1.871-1.878H17.007a1.877 1.877 0 0 0-1.862 1.878v3.778c0 1.046.84 1.87 1.862 1.87 4.861.025 8.809 3.964 8.809 8.81 0 4.862-3.947 8.802-8.809 8.802-1.022 0-1.862.848-1.862 1.895v5.653c0 1.047.84 1.877 1.862 1.877 4.861 0 8.809 3.955 8.809 8.811 0 4.854-3.947 8.793-8.809 8.793-1.022 0-1.862.855-1.862 1.889v5.669c0 1.03.84 1.879 1.862 1.879 4.861 0 8.809 3.957 8.809 8.804 0 4.838-3.947 8.801-8.809 8.801-1.022 0-1.862.85-1.862 1.879v3.772c0 1.047.84 1.896 1.862 1.896h17.111l1.953 4.068c.462.957 1.607 1.346 2.53.885 3.548-1.688 7.837-.184 9.538 3.367 1.71 3.562.206 7.848-3.35 9.543a1.89 1.89 0 0 0-.886 2.531l2.064 4.301a1.877 1.877 0 0 0 2.521.893c3.556-1.696 7.841-.188 9.547 3.359 1.706 3.562.198 7.828-3.358 9.553-.935.453-1.347 1.582-.877 2.515l1.372 2.887a1.856 1.856 0 0 0 1.694 1.062c.275 0 .552-.057.808-.182l93.395-44.773h31.892a1.89 1.89 0 0 0 1.896-1.895v-3.775a1.89 1.89 0 0 0-1.896-1.879c-4.838 0-8.778-3.938-8.778-8.801 0-4.847 3.94-8.802 8.778-8.802a1.876 1.876 0 0 0 1.896-1.879v-5.66a1.896 1.896 0 0 0-1.896-1.903c-4.838 0-8.778-3.938-8.778-8.793 0-4.847 3.94-8.812 8.778-8.812 1.056 0 1.896-.83 1.896-1.877V88.43a1.89 1.89 0 0 0-1.896-1.895c-4.838 0-8.778-3.939-8.778-8.802-.009-4.846 3.935-8.785 8.796-8.785zm-75.65 79.2h10.198l-47.625 21.713-11.087-21.713h37.759m66.924-16.349c0 1.047-.844 1.879-1.906 1.879H38.396a1.861 1.861 0 0 1-1.875-1.879V77.75c0-1.047.824-1.9 1.875-1.9H161.59a1.9 1.9 0 0 1 1.907 1.9l.001 54.049zM40.177 23.072l3.133 6.344 6.992 1.017-5.067 4.935 1.2 6.973-6.258-3.291-6.263 3.291 1.189-6.973-5.058-4.935 6.999-1.017zm118.419 0l3.133 6.344 6.992 1.017-5.067 4.935 1.2 6.973-6.258-3.291-6.264 3.291 1.189-6.973-5.058-4.935 7-1.017z"/><path d="M47.922 112.415V89.347h4.267v22.66c0 1.009.242 1.772.725 2.298.483.523 1.12.785 1.909.785.789 0 1.425-.262 1.909-.785.483-.523.725-1.289.725-2.298v-22.66h4.267v23.068c0 1.933-.674 3.573-2.021 4.92-1.348 1.349-2.974 2.021-4.879 2.021-1.906 0-3.532-.674-4.879-2.021-1.349-1.347-2.023-2.987-2.023-4.92zm16.965-.122V110.7h4.267v1.348c0 .856.252 1.579.755 2.164.503.585 1.259.878 2.266.878.694 0 1.255-.095 1.684-.285.429-.191.742-.504.939-.938a4.55 4.55 0 0 0 .378-1.339c.054-.455.082-1.077.082-1.866 0-1.089-.068-1.897-.204-2.431-.136-.53-.361-.936-.674-1.215-.313-.277-.844-.568-1.592-.867l-3.042-1.244c-1.756-.723-2.967-1.686-3.634-2.889-.667-1.205-1-2.794-1-4.769 0-2.367.629-4.317 1.888-5.849s3.065-2.297 5.42-2.297c1.361 0 2.596.33 3.706.99 1.109.66 1.953 1.501 2.531 2.521.578 1.021.868 2.09.868 3.205v2.103h-4.267v-.959c0-1.062-.245-1.93-.735-2.603-.49-.674-1.246-1.011-2.266-1.011-1.933 0-2.899 1.286-2.899 3.858 0 1.225.14 2.086.418 2.582.279.497.949.956 2.011 1.378l3.267 1.308c1.783.68 2.973 1.625 3.572 2.838.599 1.211.898 2.979.898 5.308 0 5.825-2.45 8.737-7.349 8.737-2.069 0-3.801-.674-5.196-2.021-1.395-1.347-2.092-3.026-2.092-5.042zm17.801 6.818V89.347h6.329c2.395 0 4.239.678 5.532 2.031 1.293 1.354 1.939 3.243 1.939 5.665v13.923c0 2.724-.674 4.761-2.021 6.114-1.348 1.354-3.294 2.031-5.838 2.031h-5.941zm4.267-4.021h1.96c1.184 0 2.031-.296 2.542-.888.51-.593.766-1.535.766-2.828V97.043c0-1.238-.249-2.163-.745-2.776-.497-.612-1.351-.918-2.562-.918h-1.96l-.001 21.741zm21.518-18.087v-4.532l4.245-3.124h4.267v29.764h-4.267V93.859l-4.245 3.144zm14.737 22.108v-4.021l7.677-14.494c.34-.667.551-1.251.633-1.756.082-.503.123-1.231.123-2.185 0-.408-.004-.721-.012-.938a5.223 5.223 0 0 0-.122-.857c-.075-.354-.181-.623-.315-.807-.137-.184-.344-.348-.623-.49-.278-.143-.615-.214-1.01-.214-.642 0-1.147.187-1.521.562-.374.374-.562.901-.562 1.582v2.429h-4.267v-2.348c0-1.782.623-3.307 1.868-4.572 1.245-1.267 2.753-1.899 4.521-1.899 1.074 0 2.023.201 2.849.603a5.143 5.143 0 0 1 1.979 1.653c.496.701.867 1.49 1.112 2.369.244.877.367 1.826.367 2.848 0 1.511-.075 2.612-.226 3.307-.149.694-.545 1.653-1.185 2.879l-6.287 12.086h7.696v4.266H123.21v-.003zm15.536-6.144V95.492c0-1.92.615-3.464 1.848-4.635 1.231-1.17 2.732-1.756 4.502-1.756s3.271.586 4.502 1.756c1.23 1.171 1.848 2.715 1.848 4.635v17.475c0 1.92-.616 3.465-1.848 4.635s-2.732 1.756-4.502 1.756-3.271-.586-4.502-1.756c-1.233-1.17-1.848-2.715-1.848-4.635zm4.268 0c0 .6.196 1.104.592 1.512s.892.611 1.49.611c.6 0 1.096-.203 1.49-.611s.592-.912.592-1.512V95.492c0-.612-.197-1.123-.592-1.531-.396-.408-.893-.612-1.49-.612-.6 0-1.096.204-1.49.612-.396.408-.592.919-.592 1.531v17.475zM62.515 38.11v-1.722h4.614v1.457c0 .928.272 1.708.817 2.341.544.633 1.361.949 2.451.949.75 0 1.358-.104 1.821-.309a1.958 1.958 0 0 0 1.016-1.016c.212-.47.349-.952.408-1.446.058-.493.088-1.167.088-2.021 0-1.177-.073-2.053-.221-2.627-.147-.574-.39-1.012-.729-1.314-.338-.301-.913-.614-1.722-.938l-3.29-1.347c-1.899-.78-3.209-1.822-3.93-3.124-.722-1.303-1.083-3.021-1.083-5.156 0-2.561.681-4.67 2.043-6.326 1.361-1.656 3.315-2.484 5.862-2.484 1.471 0 2.807.357 4.007 1.071s2.112 1.623 2.738 2.727c.625 1.104.938 2.26.938 3.466v2.274H73.73v-1.038c0-1.148-.265-2.086-.794-2.815-.53-.729-1.347-1.093-2.451-1.093-2.09 0-3.135 1.391-3.135 4.173 0 1.324.15 2.255.452 2.793.301.538 1.027 1.034 2.175 1.49l3.532 1.413c1.928.736 3.216 1.76 3.864 3.069.647 1.311.972 3.224.972 5.741 0 6.299-2.65 9.45-7.949 9.45-2.238 0-4.111-.729-5.619-2.186-1.508-1.456-2.262-3.274-2.262-5.452zm18.988-.221V20.888c0-1.266.224-2.411.673-3.434.449-1.023 1.045-1.851 1.788-2.483a8.037 8.037 0 0 1 2.474-1.446c.905-.332 1.836-.497 2.793-.497s1.888.166 2.793.497a8.063 8.063 0 0 1 2.473 1.446c.743.633 1.339 1.46 1.788 2.483.45 1.023.673 2.167.673 3.434v17.001c0 1.266-.224 2.41-.673 3.433-.449 1.023-1.045 1.852-1.788 2.484a8.032 8.032 0 0 1-2.473 1.446c-.905.332-1.836.497-2.793.497s-1.888-.166-2.793-.497-1.73-.813-2.474-1.446c-.743-.632-1.339-1.46-1.788-2.484-.449-1.023-.673-2.167-.673-3.433zm4.615 0c0 1.045.294 1.848.883 2.406.589.56 1.333.839 2.23.839s1.645-.279 2.241-.839c.597-.559.894-1.361.894-2.406V20.888c0-1.045-.297-1.851-.894-2.418-.596-.566-1.343-.85-2.241-.85s-1.642.28-2.23.839c-.588.56-.883 1.37-.883 2.429v17.001zm14.638 0V20.888c0-1.266.225-2.411.674-3.434.447-1.023 1.045-1.851 1.788-2.483a8.013 8.013 0 0 1 2.474-1.446c.906-.332 1.836-.497 2.793-.497s1.888.166 2.793.497a8.075 8.075 0 0 1 2.473 1.446c.743.633 1.34 1.46 1.789 2.483.447 1.023.674 2.167.674 3.434v17.001c0 1.266-.227 2.41-.674 3.433-.449 1.023-1.046 1.852-1.789 2.484a7.997 7.997 0 0 1-2.473 1.446c-.905.332-1.836.497-2.793.497s-1.887-.166-2.793-.497a8.08 8.08 0 0 1-2.474-1.446c-.743-.632-1.341-1.46-1.788-2.484-.451-1.023-.674-2.167-.674-3.433zm4.615 0c0 1.045.295 1.848.883 2.406.589.56 1.331.839 2.229.839s1.646-.279 2.24-.839c.598-.559.896-1.361.896-2.406V20.888c0-1.045-.299-1.851-.896-2.418-.595-.566-1.343-.85-2.24-.85s-1.641.28-2.229.839c-.588.56-.883 1.37-.883 2.429v17.001zm14.727 7.595V13.293h4.438l6.955 19.385h.089V13.293h4.614v32.191h-4.328L124.8 26.121h-.089v19.364l-4.613-.001z" fill="#F8CF1C"/></svg>