<svg xmlns="http://www.w3.org/2000/svg" width="200" height="200" viewBox="0 0 200 200"><g fill="#F8CF1C"><path d="M182.978 75.828c1.03 0 1.87-.84 1.87-1.895v-3.774c0-1.039-.84-1.875-1.87-1.875H17.019a1.867 1.867 0 0 0-1.866 1.875v3.778c0 1.055.84 1.871 1.862 1.871 4.86.025 8.809 3.963 8.809 8.809 0 4.861-3.947 8.804-8.809 8.804-1.022-.004-1.862.845-1.862 1.896v5.657c0 1.046.84 1.871 1.862 1.871 4.86 0 8.809 3.963 8.809 8.808 0 4.854-3.947 8.793-8.809 8.793-1.022-.004-1.862.853-1.862 1.884v5.668c0 1.03.84 1.879 1.862 1.879 4.86 0 8.809 3.959 8.809 8.801 0 4.847-3.947 8.801-8.809 8.801-1.022 0-1.862.849-1.862 1.883v3.771c0 1.058.84 1.896 1.862 1.896h17.109l1.953 4.08c.461.951 1.606 1.342 2.529.88 3.548-1.692 7.837-.188 9.538 3.375 1.709 3.552.205 7.841-3.351 9.533-.466.224-.807.61-.972 1.088-.17.463-.128.996.086 1.44l2.064 4.307a1.883 1.883 0 0 0 2.521.891c3.557-1.697 7.841-.189 9.546 3.361 1.707 3.561.199 7.832-3.356 9.543-.937.461-1.348 1.582-.877 2.521l1.371 2.879a1.862 1.862 0 0 0 2.502.883l93.384-44.77h31.891c1.055 0 1.895-.84 1.895-1.894v-3.774c0-1.031-.84-1.88-1.895-1.88-4.838 0-8.78-3.938-8.78-8.799 0-4.843 3.942-8.802 8.78-8.802a1.876 1.876 0 0 0 1.895-1.879v-5.654c0-1.046-.84-1.902-1.895-1.902-4.838 0-8.78-3.938-8.78-8.791 0-4.843 3.942-8.81 8.78-8.81 1.055 0 1.895-.824 1.895-1.871v-5.653a1.89 1.89 0 0 0-1.895-1.899c-4.838 0-8.78-3.942-8.78-8.805 0-4.856 3.939-8.799 8.805-8.799zm-75.649 79.196h10.197l-47.618 21.712-11.088-21.712h37.756m66.918-16.348c0 1.049-.845 1.879-1.906 1.879H38.401a1.86 1.86 0 0 1-1.874-1.879V84.633c0-1.047.823-1.9 1.874-1.9h123.185a1.9 1.9 0 0 1 1.907 1.9l.001 54.043zM98.867 0l8.228 16.648 18.367 2.666-13.291 12.965 3.14 18.303-16.444-8.641-16.427 8.641 3.132-18.303-13.283-12.965 18.367-2.666zM53.324 19.8l4.18 8.458 9.322 1.352-6.753 6.58 1.599 9.299-8.348-4.392-8.346 4.392 1.585-9.299-6.749-6.58 9.333-1.352zm90.826 0l4.174 8.458 9.327 1.352-6.749 6.58 1.591 9.299-8.343-4.392-8.351 4.392 1.598-9.299-6.756-6.58 9.328-1.352z"/><path d="M42.2 121.348v-1.887h3.964v1.59c0 1.014.238 1.867.7 2.56.475.692 1.175 1.038 2.113 1.038.651 0 1.166-.109 1.57-.338.398-.225.684-.594.873-1.113a6.71 6.71 0 0 0 .351-1.582c.049-.536.078-1.277.078-2.207 0-1.287-.069-2.246-.194-2.877-.123-.621-.329-1.104-.626-1.434-.283-.338-.783-.678-1.481-1.03l-2.831-1.476c-1.633-.849-2.753-1.998-3.379-3.424-.613-1.426-.932-3.304-.932-5.636 0-2.802.581-5.109 1.755-6.922 1.166-1.816 2.855-2.723 5.043-2.723 1.266 0 2.415.392 3.445 1.17a7.505 7.505 0 0 1 2.355 2.983 9.218 9.218 0 0 1 .808 3.797v2.489H51.85v-1.141c0-1.263-.228-2.284-.685-3.079-.458-.799-1.157-1.194-2.105-1.194-1.804 0-2.702 1.516-2.702 4.566 0 1.448.128 2.472.383 3.047.27.601.895 1.144 1.879 1.638l3.036 1.545c1.665.807 2.771 1.928 3.325 3.36.561 1.438.836 3.532.836 6.278 0 6.896-2.281 10.343-6.839 10.343-1.928 0-3.535-.8-4.832-2.39-1.299-1.59-1.946-3.574-1.946-5.951zm16.341-.252V102.49c0-1.376.188-2.638.576-3.75.389-1.121.902-2.028 1.541-2.724a6.637 6.637 0 0 1 2.126-1.582 5.648 5.648 0 0 1 2.401-.544 5.61 5.61 0 0 1 2.403.544c.772.363 1.493.89 2.129 1.582.639.692 1.149 1.603 1.532 2.724.392 1.112.59 2.37.59 3.75v18.605c0 1.385-.198 2.637-.59 3.758-.383 1.125-.895 2.025-1.532 2.723a6.717 6.717 0 0 1-2.129 1.582 5.624 5.624 0 0 1-2.403.544 5.631 5.631 0 0 1-2.401-.544c-.783-.361-1.492-.891-2.126-1.582-.639-.691-1.152-1.598-1.541-2.723-.388-1.121-.576-2.373-.576-3.757zm3.967 0c0 1.146.256 2.027.763 2.638.503.614 1.146.915 1.915.915.774 0 1.413-.301 1.929-.915.511-.61.774-1.492.774-2.638V102.49c0-1.139-.265-2.02-.774-2.638-.516-.614-1.152-.931-1.929-.931-.773 0-1.412.305-1.915.915-.507.614-.763 1.5-.763 2.654v18.606zm12.826 8.313V94.184h3.969v30.175h7.859v5.047H75.334v.003zm14.383 0V94.184h5.884c2.229 0 3.955.808 5.153 2.405 1.202 1.599 1.805 3.84 1.805 6.708v16.473c0 3.221-.627 5.628-1.884 7.234-1.256 1.605-3.062 2.4-5.435 2.4h-5.523v.005zm3.964-4.762h1.829c1.096 0 1.892-.354 2.364-1.046.47-.702.708-1.821.708-3.354v-16.951c0-1.471-.229-2.562-.69-3.288-.454-.725-1.253-1.087-2.378-1.087h-1.825v25.726h-.008zm19.586-3.551V102.49c0-1.376.197-2.638.576-3.75.396-1.121.906-2.028 1.542-2.724a6.908 6.908 0 0 1 2.134-1.582 5.663 5.663 0 0 1 2.406-.544c.812 0 1.614.181 2.4.544.779.363 1.488.89 2.131 1.582.63.692 1.142 1.603 1.528 2.724.388 1.112.589 2.37.589 3.75v18.605c0 1.385-.201 2.637-.589 3.758-.388 1.125-.898 2.025-1.528 2.723-.643.691-1.352 1.221-2.131 1.582a5.7 5.7 0 0 1-2.4.544 5.65 5.65 0 0 1-2.406-.544 6.915 6.915 0 0 1-2.134-1.582c-.636-.691-1.146-1.598-1.542-2.723-.379-1.121-.576-2.373-.576-3.757zm3.975 0c0 1.146.256 2.027.768 2.638.503.614 1.142.915 1.92.915.766 0 1.418-.301 1.92-.915.519-.608.773-1.491.773-2.638V102.49c0-1.139-.256-2.02-.773-2.638-.502-.614-1.154-.931-1.92-.931-.778 0-1.417.305-1.92.915-.512.614-.768 1.5-.768 2.654v18.606zm12.825.387v-27.3h3.973v26.813c0 1.19.223 2.098.677 2.719.439.613 1.038.933 1.771.933s1.327-.31 1.771-.933c.452-.617.676-1.523.676-2.719V94.184h3.968v27.3c0 2.29-.622 4.227-1.875 5.826-1.253 1.59-2.769 2.389-4.54 2.389s-3.287-.799-4.54-2.389c-1.254-1.601-1.881-3.537-1.881-5.827zm14.586-22.558v-4.738h13.15v4.738h-4.599v30.489h-3.955V98.925h-4.596z"/></g></svg>