<svg id="Layer_1" xmlns="http://www.w3.org/2000/svg" viewBox="0 0 25 34"><style>.st0{fill:#1a2024}</style><g id="Now"><path id="location-copy" class="st0" d="M13.1 29.2c1.3-1.5 2.5-3.2 3.7-4.9 1.2-1.7 2.3-3.4 3.1-5 1.4-2.6 2.1-4.8 2.1-6.5 0-6.1-4.1-10.2-9.7-10.2S2.7 6.7 2.7 12.8c0 1.7.8 3.9 2.1 6.5.8 1.6 1.9 3.3 3.1 5 1.2 1.7 2.5 3.3 3.7 4.9.2.3.5.6.7.8.3-.3.5-.6.8-.8zm-.7 2.8s-11-12.2-11-19.3 4.9-11.6 11-11.6 11 4.5 11 11.6-11 19.3-11 19.3zm0-16.6c1.3 0 2.5-1.2 2.5-2.6s-1.1-2.6-2.5-2.6-2.5 1.2-2.5 2.6 1.1 2.6 2.5 2.6zm0 1.5c-2.2 0-3.9-1.8-3.9-4.1s1.7-4.1 3.9-4.1 3.9 1.8 3.9 4.1-1.8 4.1-3.9 4.1z"/></g></svg>