<svg id="Layer_1" xmlns="http://www.w3.org/2000/svg" viewBox="0 0 99.5 100"><style>.st0{fill:#ffd005}</style><title>twitter</title><path class="st0" d="M85.4 30.2c-3.6-6.1-8.4-11-14.6-14.6-6.1-3.6-12.8-5.3-20.1-5.3-7.3 0-14 1.8-20.1 5.4-6.1 3.6-11 8.4-14.6 14.6-3.6 6.1-5.4 12.8-5.4 20.1 0 8.7 2.5 16.6 7.6 23.5 5.1 7 11.7 11.8 19.7 14.5.9.2 1.6.1 2.1-.4.5-.4.7-.9.7-1.6V79l-1.2.2c-.8.1-1.7.2-2.9.2s-2.4-.1-3.6-.4c-1.3-.2-2.4-.7-3.5-1.6-1.1-.8-1.8-1.9-2.3-3.2l-.5-1.2c-.3-.8-.9-1.7-1.6-2.7-.7-1-1.5-1.6-2.3-2l-.3-.3c-.2-.2-.5-.4-.7-.6-.2-.2-.4-.5-.5-.7-.1-.2 0-.4.3-.6.3-.2.8-.2 1.5-.2l1 .2c.7.1 1.6.6 2.6 1.2 1 .7 1.9 1.6 2.5 2.7.8 1.4 1.8 2.5 2.9 3.3 1.1.7 2.3 1.1 3.4 1.1s2.1-.1 3-.3c.8-.2 1.6-.4 2.3-.8.3-2.3 1.2-4.1 2.6-5.4-2-.2-3.8-.5-5.3-.9-1.6-.4-3.2-1.1-4.9-2-1.7-.9-3.1-2.1-4.2-3.5s-2-3.2-2.7-5.5c-.7-2.3-1.1-4.9-1.1-7.8 0-4.2 1.4-7.8 4.1-10.7-1.3-3.2-1.2-6.7.4-10.6 1-.3 2.5-.1 4.5.7 2 .8 3.4 1.5 4.3 2 .9.6 1.7 1 2.2 1.4 3.2-.9 6.6-1.4 10-1.4 3.4 0 6.8.5 10 1.4l2-1.2c1.4-.8 3-1.6 4.8-2.3 1.8-.7 3.2-.9 4.2-.6 1.6 3.9 1.7 7.5.4 10.6 2.7 3 4.1 6.5 4.1 10.7 0 3-.4 5.6-1.1 7.8-.7 2.3-1.6 4.1-2.8 5.5-1.1 1.4-2.5 2.5-4.2 3.5-1.7.9-3.3 1.6-4.9 2-1.6.4-3.4.7-5.3.9 1.8 1.6 2.7 4 2.7 7.4v11c0 .6.2 1.1.7 1.6.4.4 1.1.5 2.1.4 8.1-2.7 14.6-7.5 19.7-14.5s7.6-14.8 7.6-23.5c0-7.3-1.8-14-5.3-20.1z"/></svg>