<svg xmlns="http://www.w3.org/2000/svg" width="150" height="100" viewBox="-25 0 150 100"><title>slack</title><path fill="#BCD636" d="M89.668 52.59a6.495 6.495 0 0 0-8.211-4.113l-8.102 2.711-5.391-16.082 8.102-2.711a6.493 6.493 0 0 0-4.098-12.322l-8.103 2.711-2.804-8.379a6.493 6.493 0 0 0-12.321 4.097l2.804 8.379-16.697 5.606-2.803-8.379a6.492 6.492 0 1 0-12.322 4.097l2.803 8.379-8.102 2.711a6.5 6.5 0 0 0-4.097 8.194 6.686 6.686 0 0 0 6.006 4.406 5.578 5.578 0 0 0 2.188-.309l8.102-2.711 5.391 16.081-8.102 2.711a6.5 6.5 0 0 0-4.098 8.194 6.651 6.651 0 0 0 6.008 4.404 5.578 5.578 0 0 0 2.188-.309l8.102-2.711 2.803 8.38a6.652 6.652 0 0 0 6.007 4.404 5.57 5.57 0 0 0 2.187-.309 6.5 6.5 0 0 0 4.098-8.193l-2.803-8.379 16.666-5.576 2.803 8.379a6.656 6.656 0 0 0 6.008 4.405 5.583 5.583 0 0 0 2.188-.309 6.502 6.502 0 0 0 4.098-8.193l-2.805-8.38 8.104-2.711.092.031a6.486 6.486 0 0 0 4.111-8.204zm-45.416 8.393l-5.391-16.095 16.678-5.587 5.393 16.096-16.68 5.586z"/></svg>