<svg xmlns="http://www.w3.org/2000/svg" width="150" height="100" viewBox="-25 0 150 100"><title>twitter</title><path fill="#BCD636" d="M81.774 33.573c1.205 25.726-18.672 47.558-44.398 48.765a46.62 46.62 0 0 1-27.375-7.34 32.973 32.973 0 0 0 24.278-6.633 16.583 16.583 0 0 1-15.323-11.377 16.56 16.56 0 0 0 7.396-.266 16.586 16.586 0 0 1-13.269-16.285 16.356 16.356 0 0 0 7.43 2.057c-7.131-4.865-9.338-14.385-5.074-21.891a46.429 46.429 0 0 0 33.797 17.146c-2.055-8.831 3.439-17.656 12.271-19.711a16.417 16.417 0 0 1 15.691 4.753 32.885 32.885 0 0 0 10.578-4.212 16.58 16.58 0 0 1-7.195 9.088 32.753 32.753 0 0 0 9.418-2.587 33.126 33.126 0 0 1-8.225 8.493z"/></svg>