<svg id="Layer_1" xmlns="http://www.w3.org/2000/svg" viewBox="0 0 124 100"><style>.st0{fill:#ffd005}</style><title>twitter</title><path class="st0" d="M93.8 33.6C95 59.3 75.1 81.2 49.4 82.4c-9.7.4-19.3-2.2-27.4-7.4 8.7 1.1 17.4-1.3 24.3-6.6-7-.2-13.1-4.7-15.3-11.4 2.5.5 5 .4 7.4-.3-7.7-1.6-13.3-8.4-13.3-16.3 2.3 1.3 4.8 2 7.4 2.1-7.1-4.9-9.3-14.4-5.1-21.9C35.8 30.9 48 37.1 61.2 37.7 59.1 28.9 64.6 20 73.5 18c5.7-1.3 11.7.5 15.7 4.8 3.7-.8 7.3-2.2 10.6-4.2-1.2 3.8-3.8 7-7.2 9.1 3.3-.4 6.4-1.3 9.4-2.6-2.2 3.3-5 6.2-8.2 8.5z"/></svg>