<svg xmlns="http://www.w3.org/2000/svg" width="150" height="100" viewBox="-25 0 150 100"><title>youtube</title><path fill="#BCD636" d="M89.193 34.066a17.284 17.284 0 0 0-3.174-7.959 11.531 11.531 0 0 0-8.018-3.403C66.813 21.896 50 21.896 50 21.896s-16.812 0-28.002.808a11.538 11.538 0 0 0-8.019 3.403 17.296 17.296 0 0 0-3.172 7.959 120.776 120.776 0 0 0-.808 12.948v5.941c.037 4.328.307 8.649.808 12.949a17.3 17.3 0 0 0 3.172 7.959 13.575 13.575 0 0 0 8.825 3.432c6.402.606 27.224.808 27.224.808s16.813 0 28.032-.836a11.54 11.54 0 0 0 7.959-3.259 17.318 17.318 0 0 0 3.174-7.96c.504-4.347.773-8.718.807-13.093v-5.941c-.037-4.327-.307-8.65-.807-12.948zM41.695 60.453V37.959l21.629 11.276-21.629 11.218z"/></svg>